<mxfile host="app.diagrams.net" modified="2024-06-01T08:45:02.744Z" agent="Mozilla/5.0 (Windows NT 10.0; Win64; x64) AppleWebKit/537.36 (KHTML, like Gecko) Chrome/124.0.0.0 Safari/537.36" etag="rpou0nRBSq34WbGiWDaA" version="24.4.13" type="github">
  <diagram name="Page-1" id="929967ad-93f9-6ef4-fab6-5d389245f69c">
    <mxGraphModel dx="1129" dy="500" grid="1" gridSize="10" guides="1" tooltips="1" connect="1" arrows="1" fold="1" page="1" pageScale="1.5" pageWidth="1169" pageHeight="826" background="none" math="0" shadow="0">
      <root>
        <mxCell id="0" style=";html=1;" />
        <mxCell id="1" style=";html=1;" parent="0" />
        <mxCell id="1672d66443f91eb5-23" value="Tierpfleger-Tätigkeiten, Löwe und Geier" style="text;strokeColor=none;fillColor=none;html=1;fontSize=24;fontStyle=1;verticalAlign=middle;align=center;" parent="1" vertex="1">
          <mxGeometry x="120" y="40" width="1510" height="40" as="geometry" />
        </mxCell>
        <mxCell id="1XazL9aCCQnDjS4PTSwQ-2" value="TPf Loewe" style="shape=umlActor;verticalLabelPosition=bottom;verticalAlign=top;html=1;outlineConnect=0;" vertex="1" parent="1">
          <mxGeometry x="440" y="301" width="60" height="130" as="geometry" />
        </mxCell>
        <mxCell id="1XazL9aCCQnDjS4PTSwQ-5" value="TPf Geier" style="shape=umlActor;verticalLabelPosition=bottom;verticalAlign=top;html=1;outlineConnect=0;" vertex="1" parent="1">
          <mxGeometry x="1190" y="425" width="60" height="130" as="geometry" />
        </mxCell>
        <mxCell id="1XazL9aCCQnDjS4PTSwQ-8" value="Futter lagern" style="ellipse;whiteSpace=wrap;html=1;" vertex="1" parent="1">
          <mxGeometry x="580" y="336" width="120" height="60" as="geometry" />
        </mxCell>
        <mxCell id="1XazL9aCCQnDjS4PTSwQ-16" value="Futter prüfen" style="ellipse;whiteSpace=wrap;html=1;" vertex="1" parent="1">
          <mxGeometry x="790" y="336" width="120" height="60" as="geometry" />
        </mxCell>
        <mxCell id="1XazL9aCCQnDjS4PTSwQ-17" value="in das Lager bringen" style="ellipse;whiteSpace=wrap;html=1;" vertex="1" parent="1">
          <mxGeometry x="750" y="180" width="120" height="60" as="geometry" />
        </mxCell>
        <mxCell id="1XazL9aCCQnDjS4PTSwQ-18" value="Entsorgen" style="ellipse;whiteSpace=wrap;html=1;" vertex="1" parent="1">
          <mxGeometry x="890" y="190" width="120" height="60" as="geometry" />
        </mxCell>
        <mxCell id="1XazL9aCCQnDjS4PTSwQ-19" value="an TPf Geier übergeben" style="ellipse;whiteSpace=wrap;html=1;" vertex="1" parent="1">
          <mxGeometry x="1000" y="336" width="120" height="60" as="geometry" />
        </mxCell>
        <mxCell id="1XazL9aCCQnDjS4PTSwQ-20" value="an TPf Piranhas übergeben" style="ellipse;whiteSpace=wrap;html=1;" vertex="1" parent="1">
          <mxGeometry x="790" y="560" width="120" height="60" as="geometry" />
        </mxCell>
        <mxCell id="1XazL9aCCQnDjS4PTSwQ-21" value="Futter portionieren" style="ellipse;whiteSpace=wrap;html=1;" vertex="1" parent="1">
          <mxGeometry x="580" y="460" width="120" height="60" as="geometry" />
        </mxCell>
        <mxCell id="1XazL9aCCQnDjS4PTSwQ-22" value="Futter portionieren" style="ellipse;whiteSpace=wrap;html=1;" vertex="1" parent="1">
          <mxGeometry x="1000" y="460" width="120" height="60" as="geometry" />
        </mxCell>
        <mxCell id="1XazL9aCCQnDjS4PTSwQ-25" value="" style="endArrow=none;html=1;rounded=0;entryX=0;entryY=0.5;entryDx=0;entryDy=0;" edge="1" parent="1" source="1XazL9aCCQnDjS4PTSwQ-2" target="1XazL9aCCQnDjS4PTSwQ-8">
          <mxGeometry width="50" height="50" relative="1" as="geometry">
            <mxPoint x="850" y="540" as="sourcePoint" />
            <mxPoint x="900" y="490" as="targetPoint" />
          </mxGeometry>
        </mxCell>
        <mxCell id="1XazL9aCCQnDjS4PTSwQ-26" value="" style="endArrow=none;html=1;rounded=0;entryX=1;entryY=0.5;entryDx=0;entryDy=0;" edge="1" parent="1" source="1XazL9aCCQnDjS4PTSwQ-5" target="1XazL9aCCQnDjS4PTSwQ-22">
          <mxGeometry width="50" height="50" relative="1" as="geometry">
            <mxPoint x="520" y="367" as="sourcePoint" />
            <mxPoint x="1100" y="390" as="targetPoint" />
          </mxGeometry>
        </mxCell>
        <mxCell id="1XazL9aCCQnDjS4PTSwQ-30" value="&amp;lt;&amp;lt;include&amp;gt;&amp;gt;" style="edgeStyle=none;html=1;endArrow=open;verticalAlign=bottom;dashed=1;labelBackgroundColor=none;rounded=0;exitX=1;exitY=0.5;exitDx=0;exitDy=0;entryX=0;entryY=0.5;entryDx=0;entryDy=0;" edge="1" parent="1" source="1XazL9aCCQnDjS4PTSwQ-8" target="1XazL9aCCQnDjS4PTSwQ-16">
          <mxGeometry width="160" relative="1" as="geometry">
            <mxPoint x="790" y="520" as="sourcePoint" />
            <mxPoint x="950" y="520" as="targetPoint" />
          </mxGeometry>
        </mxCell>
        <mxCell id="1XazL9aCCQnDjS4PTSwQ-36" value="&amp;lt;&amp;lt;extend&amp;gt;&amp;gt;" style="edgeStyle=none;html=1;startArrow=open;endArrow=none;startSize=12;verticalAlign=bottom;dashed=1;labelBackgroundColor=none;rounded=0;entryX=1;entryY=1;entryDx=0;entryDy=0;exitX=0;exitY=0.5;exitDx=0;exitDy=0;" edge="1" parent="1" source="1XazL9aCCQnDjS4PTSwQ-20" target="1XazL9aCCQnDjS4PTSwQ-21">
          <mxGeometry x="-0.0728" y="-17" width="160" relative="1" as="geometry">
            <mxPoint x="790" y="520" as="sourcePoint" />
            <mxPoint x="950" y="520" as="targetPoint" />
            <mxPoint as="offset" />
          </mxGeometry>
        </mxCell>
        <mxCell id="1XazL9aCCQnDjS4PTSwQ-37" value="&amp;lt;&amp;lt;extend&amp;gt;&amp;gt;" style="edgeStyle=none;html=1;startArrow=open;endArrow=none;startSize=12;verticalAlign=bottom;dashed=1;labelBackgroundColor=none;rounded=0;entryX=0;entryY=1;entryDx=0;entryDy=0;exitX=1;exitY=0.5;exitDx=0;exitDy=0;" edge="1" parent="1" source="1XazL9aCCQnDjS4PTSwQ-20" target="1XazL9aCCQnDjS4PTSwQ-22">
          <mxGeometry x="-0.0728" y="17" width="160" relative="1" as="geometry">
            <mxPoint x="800" y="600" as="sourcePoint" />
            <mxPoint x="692" y="521" as="targetPoint" />
            <mxPoint as="offset" />
          </mxGeometry>
        </mxCell>
        <mxCell id="1XazL9aCCQnDjS4PTSwQ-41" value="Condition: {MHD abgelaufen, Futter ungenießbar}" style="shape=note;size=15;spacingLeft=5;align=left;whiteSpace=wrap;" vertex="1" parent="1">
          <mxGeometry x="1040" y="180" width="180" height="40" as="geometry" />
        </mxCell>
        <mxCell id="1XazL9aCCQnDjS4PTSwQ-42" value="&amp;lt;&amp;lt;extend&amp;gt;&amp;gt;" style="align=right;html=1;verticalAlign=bottom;rounded=0;labelBackgroundColor=none;endArrow=open;endSize=12;dashed=1;entryX=0;entryY=0.5;entryDx=0;entryDy=0;exitX=1;exitY=0.5;exitDx=0;exitDy=0;" edge="1" parent="1" source="1XazL9aCCQnDjS4PTSwQ-16" target="1XazL9aCCQnDjS4PTSwQ-19">
          <mxGeometry x="0.5556" y="-24" relative="1" as="geometry">
            <mxPoint x="1260" y="199.9999999999999" as="targetPoint" />
            <mxPoint x="1169.9999999999998" y="199.9999999999999" as="sourcePoint" />
            <mxPoint as="offset" />
          </mxGeometry>
        </mxCell>
        <mxCell id="1XazL9aCCQnDjS4PTSwQ-43" value="" style="edgeStyle=none;html=1;endArrow=none;rounded=0;labelBackgroundColor=none;dashed=1;exitX=0;exitY=1;exitDx=0;exitDy=0;exitPerimeter=0;" edge="1" source="1XazL9aCCQnDjS4PTSwQ-41" parent="1">
          <mxGeometry relative="1" as="geometry">
            <mxPoint x="930" y="300" as="targetPoint" />
          </mxGeometry>
        </mxCell>
        <mxCell id="1XazL9aCCQnDjS4PTSwQ-45" value="Condition: {MHD eingehalten}" style="shape=note;size=15;spacingLeft=5;align=left;whiteSpace=wrap;" vertex="1" parent="1">
          <mxGeometry x="620" y="220" width="120" height="44" as="geometry" />
        </mxCell>
        <mxCell id="1XazL9aCCQnDjS4PTSwQ-46" value="&amp;lt;&amp;lt;extend&amp;gt;&amp;gt;" style="align=right;html=1;verticalAlign=bottom;rounded=0;labelBackgroundColor=none;endArrow=open;endSize=12;dashed=1;entryX=0.5;entryY=1;entryDx=0;entryDy=0;exitX=0.5;exitY=0;exitDx=0;exitDy=0;" edge="1" parent="1" source="1XazL9aCCQnDjS4PTSwQ-16" target="1XazL9aCCQnDjS4PTSwQ-17">
          <mxGeometry x="-0.3314" y="-36" relative="1" as="geometry">
            <mxPoint x="440" y="342" as="targetPoint" />
            <mxPoint x="350" y="342" as="sourcePoint" />
            <mxPoint as="offset" />
          </mxGeometry>
        </mxCell>
        <mxCell id="1XazL9aCCQnDjS4PTSwQ-47" value="" style="edgeStyle=none;html=1;endArrow=none;rounded=0;labelBackgroundColor=none;dashed=1;exitX=1;exitY=1;exitDx=0;exitDy=0;exitPerimeter=0;" edge="1" parent="1" source="1XazL9aCCQnDjS4PTSwQ-45">
          <mxGeometry relative="1" as="geometry">
            <mxPoint x="830" y="300" as="targetPoint" />
          </mxGeometry>
        </mxCell>
        <mxCell id="1XazL9aCCQnDjS4PTSwQ-51" value="Condition: {MHD abgelaufen, aber Futter genießbar}" style="shape=note;size=15;spacingLeft=5;align=left;whiteSpace=wrap;" vertex="1" parent="1">
          <mxGeometry x="1090" y="234" width="180" height="40" as="geometry" />
        </mxCell>
        <mxCell id="1XazL9aCCQnDjS4PTSwQ-52" value="&amp;lt;&amp;lt;extend&amp;gt;&amp;gt;" style="align=right;html=1;verticalAlign=bottom;rounded=0;labelBackgroundColor=none;endArrow=open;endSize=12;dashed=1;entryX=0.5;entryY=1;entryDx=0;entryDy=0;exitX=1;exitY=0;exitDx=0;exitDy=0;" edge="1" parent="1" source="1XazL9aCCQnDjS4PTSwQ-16" target="1XazL9aCCQnDjS4PTSwQ-18">
          <mxGeometry x="0.5556" y="-24" relative="1" as="geometry">
            <mxPoint x="1010" y="376" as="targetPoint" />
            <mxPoint x="920" y="376" as="sourcePoint" />
            <mxPoint as="offset" />
          </mxGeometry>
        </mxCell>
        <mxCell id="1XazL9aCCQnDjS4PTSwQ-53" value="" style="edgeStyle=none;html=1;endArrow=none;rounded=0;labelBackgroundColor=none;dashed=1;exitX=0;exitY=1;exitDx=0;exitDy=0;exitPerimeter=0;" edge="1" parent="1" source="1XazL9aCCQnDjS4PTSwQ-51">
          <mxGeometry relative="1" as="geometry">
            <mxPoint x="970" y="370" as="targetPoint" />
          </mxGeometry>
        </mxCell>
        <mxCell id="1XazL9aCCQnDjS4PTSwQ-54" value="" style="edgeStyle=none;html=1;endArrow=none;verticalAlign=bottom;rounded=0;entryX=0;entryY=0.5;entryDx=0;entryDy=0;" edge="1" parent="1" source="1XazL9aCCQnDjS4PTSwQ-2" target="1XazL9aCCQnDjS4PTSwQ-21">
          <mxGeometry width="160" relative="1" as="geometry">
            <mxPoint x="780" y="520" as="sourcePoint" />
            <mxPoint x="940" y="520" as="targetPoint" />
          </mxGeometry>
        </mxCell>
        <mxCell id="1XazL9aCCQnDjS4PTSwQ-55" value="Condition: {Reste bleiben übrig}" style="shape=note;size=15;spacingLeft=5;align=left;whiteSpace=wrap;" vertex="1" parent="1">
          <mxGeometry x="570" y="580" width="120" height="40" as="geometry" />
        </mxCell>
        <mxCell id="1XazL9aCCQnDjS4PTSwQ-57" value="" style="edgeStyle=none;html=1;endArrow=none;rounded=0;labelBackgroundColor=none;dashed=1;exitX=0;exitY=0;exitDx=112.5;exitDy=7.5;exitPerimeter=0;" edge="1" source="1XazL9aCCQnDjS4PTSwQ-55" parent="1">
          <mxGeometry relative="1" as="geometry">
            <mxPoint x="730" y="550" as="targetPoint" />
            <mxPoint x="670" y="600" as="sourcePoint" />
          </mxGeometry>
        </mxCell>
        <mxCell id="1XazL9aCCQnDjS4PTSwQ-58" value="Condition: {Reste bleiben übrig}" style="shape=note;size=15;spacingLeft=5;align=left;whiteSpace=wrap;" vertex="1" parent="1">
          <mxGeometry x="1005" y="580" width="120" height="40" as="geometry" />
        </mxCell>
        <mxCell id="1XazL9aCCQnDjS4PTSwQ-59" value="" style="edgeStyle=none;html=1;endArrow=none;rounded=0;labelBackgroundColor=none;dashed=1;exitX=0;exitY=0;exitDx=0;exitDy=0;exitPerimeter=0;" edge="1" parent="1" source="1XazL9aCCQnDjS4PTSwQ-58">
          <mxGeometry relative="1" as="geometry">
            <mxPoint x="970" y="550" as="targetPoint" />
            <mxPoint x="1105" y="600" as="sourcePoint" />
          </mxGeometry>
        </mxCell>
      </root>
    </mxGraphModel>
  </diagram>
</mxfile>
